<?xml version="1.0" encoding="UTF-8"?><svg id="applicationIcon" xmlns="http://www.w3.org/2000/svg" viewBox="0 0 512 512"><path d="M347.47607,34h-182.95215c-49.20862,0-89.1001,39.89142-89.1001,89.10004v182.95215c0,49.20862,39.89148,89.1001,89.1001,89.1001v74.82227c0,7.13562,8.62726,10.70911,13.67291,5.66345l81.36719-80.48572h87.91205c49.20862,0,89.1001-39.89148,89.1001-89.1001V123.10004c0-49.20862-39.89148-89.10004-89.1001-89.10004ZM319.62354,319.12207c-14.06073,0-25.5-11.43927-25.5-25.5s11.43927-25.5,25.5-25.5,25.5,11.43921,25.5,25.5-11.43921,25.5-25.5,25.5ZM338.29919,145.14471c-4.34515,3.83051-10.63678,5.77277-18.70007,5.77277h-38.74951v138.80713c0,9.53931-2.30798,16.88043-6.86035,21.82013-4.66132,5.05646-10.71381,7.6203-17.98926,7.6203-7.36847,0-13.48914-2.58649-18.19067-7.68646-4.59772-4.98395-6.92896-12.30304-6.92896-21.75397v-138.80713h-38.74951c-8.09247,0-14.35577-1.9577-18.61334-5.81622-4.40668-3.9881-6.64105-9.25598-6.64105-15.65741,0-6.63428,2.33673-12.00049,6.94403-15.94849,4.38007-3.75592,10.54059-5.6604,18.31036-5.6604h127.46826c8.17725,0,14.50873,1.98047,18.82007,5.88776,4.44873,4.03491,6.70435,9.32428,6.70435,15.72113,0,6.42596-2.29596,11.70844-6.82434,15.70087Z" style="fill: var(--pico-primary);" /></svg>